<svg width="40" height="40" viewBox="0 0 40 40" fill="none" xmlns="http://www.w3.org/2000/svg">
<path d="M0.5 10C0.5 4.7533 4.7533 0.5 10 0.5H30C35.2467 0.5 39.5 4.7533 39.5 10V30C39.5 35.2467 35.2467 39.5 30 39.5H10C4.7533 39.5 0.5 35.2467 0.5 30V10Z" fill="white"/>
<path d="M0.5 10C0.5 4.7533 4.7533 0.5 10 0.5H30C35.2467 0.5 39.5 4.7533 39.5 10V30C39.5 35.2467 35.2467 39.5 30 39.5H10C4.7533 39.5 0.5 35.2467 0.5 30V10Z" stroke="#EDEDFF"/>
<path d="M29.3507 14.674C29.7076 14.1983 29.3844 13.5005 28.8072 13.5005H19.1839C18.6111 13.5005 18.2866 14.189 18.6346 14.6662L23.3782 21.1695C23.6525 21.5457 24.1916 21.5496 24.4708 21.1774L29.3507 14.674Z" fill="#08C5A7"/>
<path d="M13.3585 13.5H8.36432C7.44911 13.5 6.92965 14.5989 7.48379 15.3627L17.4082 29.0423C17.8653 29.6724 18.7767 29.6478 19.2024 28.994L21.7601 25.0657L13.3585 13.5Z" fill="#08C5A7"/>
<path d="M25.2322 16.6881L22.6247 20.1345L19.4255 15.7475H24.7988C25.2616 15.7475 25.5198 16.3079 25.2322 16.6881Z" fill="black"/>
<path d="M12.1037 15.7475H14.992L20.4126 23.2162L18.9541 25.2001C18.5896 25.6959 17.8739 25.6882 17.5192 25.1847L11.6031 16.7879C11.2996 16.3571 11.5929 15.7475 12.1037 15.7475Z" fill="black"/>
</svg>
